# xmcd CD database file generated by Grip 3.2.0
# 
# Track frame offsets:
#       150
#       57995
#       110692
#       188113
# 
# Disc length: 3661 seconds
# 
# Revision: 2
# Processed by: cddbd v1.5.2PL0 Copyright (c) Steve Scherf et al.
# Submitted via: Grip 3.2.0
# 
DISCID=330e4b04
DTITLE=Kurt Rosenwinkel - The Remedy - Live At The Village Vanguard [CD2]
DYEAR=2006
DGENRE=Jazz
TTITLE0=View From Moscow
TTITLE1=Terra Nova
TTITLE2=Safe Corners
TTITLE3=Myrons World
EXTD=YEAR: 2008
EXTT0=
EXTT1=
EXTT2=
EXTT3=
PLAYORDER=
